<svg xmlns="http://www.w3.org/2000/svg" width="275" height="27" viewBox="0 0 275 27">
  <defs>
    <style>
      .cls-1 {
        fill-rule: evenodd;
      }
    </style>
  </defs>
  <path id="Granite_Marble" data-name="Granite &amp; Marble" class="cls-1" d="M24.173,0.214a3.656,3.656,0,0,1-.841,1.026,1.4,1.4,0,0,1-.785.213A3.908,3.908,0,0,1,21.272,1.1,12.65,12.65,0,0,0,16.43.214,15.7,15.7,0,0,0,9.482,1.822,16.57,16.57,0,0,0,5.038,5.01,17.026,17.026,0,0,0,1.628,9.962,14.436,14.436,0,0,0,.261,16.144a11.187,11.187,0,0,0,1.173,4.869,9.181,9.181,0,0,0,3.631,3.936,12.261,12.261,0,0,0,6.412,1.488,14.428,14.428,0,0,0,3.271-.36,25.648,25.648,0,0,0,4.084-1.451l1.848-6.339a16.228,16.228,0,0,1,1.016-2.9,2.705,2.705,0,0,1,1.109-1.072,5.2,5.2,0,0,1,2.07-.333l0.185-.721H14.638l-0.2.721h0.517a4.535,4.535,0,0,1,2.513.536,1.181,1.181,0,0,1,.48,1.016,8.055,8.055,0,0,1-.388,2.125l-1.83,6.449a21.722,21.722,0,0,1-2.485.739,8.8,8.8,0,0,1-1.746.166,6.292,6.292,0,0,1-5.525-2.55A10.269,10.269,0,0,1,4.178,16.4a16.612,16.612,0,0,1,2.9-9.554q3.64-5.4,9.388-5.4a6.479,6.479,0,0,1,4.407,1.4,4.166,4.166,0,0,1,1.6,3.206,19.078,19.078,0,0,1-.166,2.051h0.7l1.866-7.891h-0.7Zm2.9,10.626a10.806,10.806,0,0,1,1.423-.166,1.523,1.523,0,0,1,.979.3,0.683,0.683,0,0,1,.277.554,11.7,11.7,0,0,1-.591,2.846L25.744,25.845h2.827l0.591-2.328q0.111-.425.887-2.532a13.929,13.929,0,0,1,1.331-2.753,40.212,40.212,0,0,1,3.326-4.694,6.493,6.493,0,0,1,1.46-1.441,1.239,1.239,0,0,1,.591-0.148,0.481,0.481,0,0,1,.351.148,0.713,0.713,0,0,1,.166.462,1.336,1.336,0,0,0,.379.85,1.047,1.047,0,0,0,.73.277,1.387,1.387,0,0,0,1.275-.832,4.657,4.657,0,0,0,.628-2.328,1.437,1.437,0,0,0-.351-1.044,1.28,1.28,0,0,0-.961-0.36,4.312,4.312,0,0,0-2.439,1.257A29.984,29.984,0,0,0,30.659,18.1L33.32,9.121l-6.375,1.035ZM54.516,9.565l-0.665,2.107a3.705,3.705,0,0,0-1.136-1.959,2.933,2.933,0,0,0-1.876-.591,6.91,6.91,0,0,0-4.01,1.552,15.255,15.255,0,0,0-4.481,5.22,13.066,13.066,0,0,0-1.765,6.2,4.509,4.509,0,0,0,.979,3.077,3,3,0,0,0,2.328,1.118,5.422,5.422,0,0,0,2.864-.905,18.081,18.081,0,0,0,4.454-4.417l-0.388,1.386a9.478,9.478,0,0,0-.407,2.384,1.563,1.563,0,0,0,.4,1.155,1.619,1.619,0,0,0,1.192.4A4.283,4.283,0,0,0,54.5,25.282a11.628,11.628,0,0,0,2.624-2.929l-0.628-.443a10.723,10.723,0,0,1-1.922,2.217,1.165,1.165,0,0,1-.628.3,0.474,0.474,0,0,1-.37-0.166,0.783,0.783,0,0,1-.185-0.517,1.864,1.864,0,0,1,.055-0.407l0.407-1.682,3.6-12.529Zm-1.977,1.22a3.437,3.437,0,0,1,.61,2.273,12.9,12.9,0,0,1-3.16,8.113q-2.366,2.975-4.38,2.975a1.863,1.863,0,0,1-1.441-.73,2.942,2.942,0,0,1-.628-1.986,13.183,13.183,0,0,1,1.469-5.581,13.523,13.523,0,0,1,3.354-4.657,4.029,4.029,0,0,1,2.513-1.109A2.089,2.089,0,0,1,52.539,10.785Zm8.039-.517,0.111,0.665,0.7-.111a6.944,6.944,0,0,1,.776-0.074,1.127,1.127,0,0,1,.8.3,0.95,0.95,0,0,1,.323.711,15.177,15.177,0,0,1-.591,2.513L59.34,25.845h2.772L63.036,22.8a17.969,17.969,0,0,1,1.441-3.437A38.685,38.685,0,0,1,67.6,14.471a11.107,11.107,0,0,1,2.846-2.744,2.482,2.482,0,0,1,1.238-.444,0.821,0.821,0,0,1,.591.231,0.8,0.8,0,0,1,.24.6,8.282,8.282,0,0,1-.407,2.162l-2.144,7.429a12.917,12.917,0,0,0-.628,3.049,1.53,1.53,0,0,0,.406,1.118,1.455,1.455,0,0,0,1.09.416,3.561,3.561,0,0,0,1.922-.721,13.888,13.888,0,0,0,3.252-3.511l-0.573-.351a12.342,12.342,0,0,1-2.144,2.365,0.952,0.952,0,0,1-.536.24,0.415,0.415,0,0,1-.314-0.176,0.649,0.649,0,0,1-.148-0.434,9.4,9.4,0,0,1,.388-1.645l2.255-7.78a11.254,11.254,0,0,0,.536-2.957,2.169,2.169,0,0,0-.6-1.589,2.049,2.049,0,0,0-1.525-.61,5.466,5.466,0,0,0-3.539,1.626,39.37,39.37,0,0,0-5.294,6.782l2.458-8.408ZM84.694,2.321a1.784,1.784,0,0,0-.536,1.312,1.777,1.777,0,0,0,.545,1.3,1.829,1.829,0,0,0,2.606,0,1.778,1.778,0,0,0,.545-1.3A1.856,1.856,0,0,0,84.694,2.321ZM79.87,10.156v0.721a13.733,13.733,0,0,1,1.682-.2,1.129,1.129,0,0,1,.785.259,0.857,0.857,0,0,1,.287.665,13.311,13.311,0,0,1-.591,2.55l-2.4,8.279a9.471,9.471,0,0,0-.462,2.273,1.5,1.5,0,0,0,.481,1.137,1.732,1.732,0,0,0,1.238.453,3.969,3.969,0,0,0,2.4-.979,13.084,13.084,0,0,0,2.957-3.234L85.6,21.651a11.073,11.073,0,0,1-2.125,2.365,1.178,1.178,0,0,1-.665.3,0.554,0.554,0,0,1-.416-0.185,0.668,0.668,0,0,1-.176-0.48,9.69,9.69,0,0,1,.37-1.571L86.246,9.121Zm17.2-5.618a15.394,15.394,0,0,1-3.012,3.816,9.046,9.046,0,0,1-3.382,1.654l-0.185.721h2.791L90.2,21.429a12.305,12.305,0,0,0-.591,3.049,1.746,1.746,0,0,0,.517,1.3,1.818,1.818,0,0,0,1.331.508,3.692,3.692,0,0,0,2.088-.7,13.113,13.113,0,0,0,3.215-3.493l-0.61-.462a22.312,22.312,0,0,1-1.977,2.273,2.168,2.168,0,0,1-1.22.647,0.455,0.455,0,0,1-.351-0.166,0.7,0.7,0,0,1-.148-0.48,10.911,10.911,0,0,1,.517-2.273l3.178-10.9h2.883l0.314-1.164h-2.9l1.441-5.026H97.075ZM108.9,17.7a11.225,11.225,0,0,0,4.73-2.957,4.433,4.433,0,0,0,1.22-2.938,2.4,2.4,0,0,0-.942-1.885,4.438,4.438,0,0,0-2.9-.795,9.881,9.881,0,0,0-5.285,1.6,12.835,12.835,0,0,0-4.269,4.481,11.07,11.07,0,0,0-1.7,5.636,5.846,5.846,0,0,0,1.368,3.751,4.9,4.9,0,0,0,4.065,1.7q3.974,0,8.353-4.343l-0.388-.536a20.7,20.7,0,0,1-3.65,2.412,6.242,6.242,0,0,1-2.559.545,3.867,3.867,0,0,1-2.828-1.155,3.8,3.8,0,0,1-1.164-2.8,11.336,11.336,0,0,1,.13-1.534A26.3,26.3,0,0,0,108.9,17.7h0Zm-2.578-5.646a6.055,6.055,0,0,1,4-2,1.911,1.911,0,0,1,1.395.48,1.684,1.684,0,0,1,.489,1.257,4.374,4.374,0,0,1-1.136,2.689,8.98,8.98,0,0,1-3.409,2.43,15.619,15.619,0,0,1-4.454,1.072A12.054,12.054,0,0,1,106.324,12.05Zm38.409,1.358a2.292,2.292,0,0,1,1.294.351,0.928,0.928,0,0,1,.351.739q0,2.07-2.864,5.525a40.664,40.664,0,0,1-3.271-9.221q4.1-1.331,5.692-3.142a5.692,5.692,0,0,0,1.589-3.788,3.457,3.457,0,0,0-1.1-2.615A4.157,4.157,0,0,0,143.44.214a6.209,6.209,0,0,0-4.768,2.181,8.528,8.528,0,0,0-1.977,5.95q0,0.518.046,1.136T136.88,10.8q-5.619,1.9-7.448,3.53a7.634,7.634,0,0,0-2.79,5.821,5.976,5.976,0,0,0,1.82,4.528,7.186,7.186,0,0,0,5.165,1.737,12.122,12.122,0,0,0,4.112-.665,15.2,15.2,0,0,0,3.908-2.2,8.324,8.324,0,0,0,2.569,2.208,6.707,6.707,0,0,0,3.068.656,6.058,6.058,0,0,0,2.938-.674,7.377,7.377,0,0,0,2.347-2.19h-0.832a3.845,3.845,0,0,1-2.846,1.349q-2.55,0-4.749-3.714,1.2-1.571,3.031-4.232a10.176,10.176,0,0,1,2.4-2.661,6.355,6.355,0,0,1,2.643-.887v-0.7h-7.485v0.7Zm-5.008-5.516a12.339,12.339,0,0,1-.092-1.414,6.245,6.245,0,0,1,.924-3.844,2.787,2.787,0,0,1,2.255-1.164,2.21,2.21,0,0,1,1.681.684,2.607,2.607,0,0,1,.647,1.866,4.878,4.878,0,0,1-1.349,3.308A11.231,11.231,0,0,1,140,9.62Q139.817,8.678,139.725,7.893Zm-1.062,9.8a25.414,25.414,0,0,0,2.282,4.823,14.507,14.507,0,0,1-2.873,1.691,6.59,6.59,0,0,1-2.357.4,5.168,5.168,0,0,1-3.871-1.525,5.291,5.291,0,0,1-1.488-3.853,6.282,6.282,0,0,1,1.571-4,11.8,11.8,0,0,1,5.137-3.262A34.147,34.147,0,0,0,138.663,17.7ZM169.5,0.787l-0.185.684a8.271,8.271,0,0,1,2.051.351,3.523,3.523,0,0,1,1.165.85l-5.452,18.683a8.376,8.376,0,0,1-1.238,2.883,3.355,3.355,0,0,1-2.643.924h-0.5l-0.2.684h8.261l0.2-.684a5.622,5.622,0,0,1-2.421-.49,1.207,1.207,0,0,1-.5-1.044,12.082,12.082,0,0,1,.573-2.661l4.472-15.5,2.347,20.383h0.739L190.784,5.462l-4.139,14.525a21.981,21.981,0,0,1-1.266,3.65,2.623,2.623,0,0,1-1.025,1.118,4.538,4.538,0,0,1-2.144.407h-0.5l-0.185.684h10.552l0.166-.684H191.8a3.669,3.669,0,0,1-2.218-.536,1.273,1.273,0,0,1-.5-1.09,8.306,8.306,0,0,1,.407-2.181l4.638-15.892a10.311,10.311,0,0,1,1.1-2.772,2.556,2.556,0,0,1,1.118-.961,13.667,13.667,0,0,1,2.347-.259V0.787h-6.117l-14.543,20.18-2.31-20.18H169.5Zm40.581,8.778-0.665,2.107a3.707,3.707,0,0,0-1.137-1.959,2.931,2.931,0,0,0-1.875-.591,6.907,6.907,0,0,0-4.01,1.552,15.263,15.263,0,0,0-4.482,5.22,13.074,13.074,0,0,0-1.765,6.2,4.51,4.51,0,0,0,.98,3.077,3,3,0,0,0,2.328,1.118,5.426,5.426,0,0,0,2.865-.905,18.081,18.081,0,0,0,4.453-4.417l-0.388,1.386a9.478,9.478,0,0,0-.406,2.384,1.563,1.563,0,0,0,.4,1.155,1.619,1.619,0,0,0,1.192.4,4.284,4.284,0,0,0,2.5-1.007,11.631,11.631,0,0,0,2.624-2.929l-0.629-.443a10.707,10.707,0,0,1-1.922,2.217,1.162,1.162,0,0,1-.628.3,0.472,0.472,0,0,1-.369-0.166,0.78,0.78,0,0,1-.185-0.517,1.855,1.855,0,0,1,.055-0.407l0.407-1.682,3.6-12.529Zm-1.977,1.22a3.44,3.44,0,0,1,.61,2.273,12.9,12.9,0,0,1-3.16,8.113q-2.367,2.975-4.38,2.975a1.865,1.865,0,0,1-1.442-.73,2.947,2.947,0,0,1-.628-1.986,13.189,13.189,0,0,1,1.469-5.581,13.539,13.539,0,0,1,3.354-4.657,4.03,4.03,0,0,1,2.514-1.109A2.089,2.089,0,0,1,208.1,10.785Zm8.186,0.055a10.8,10.8,0,0,1,1.423-.166,1.52,1.52,0,0,1,.979.3,0.683,0.683,0,0,1,.278.554,11.723,11.723,0,0,1-.592,2.846l-3.418,11.476h2.827l0.591-2.328q0.111-.425.887-2.532a13.924,13.924,0,0,1,1.331-2.753,40.2,40.2,0,0,1,3.326-4.694,6.507,6.507,0,0,1,1.46-1.441,1.24,1.24,0,0,1,.591-0.148,0.482,0.482,0,0,1,.352.148,0.715,0.715,0,0,1,.166.462,1.332,1.332,0,0,0,.379.85,1.046,1.046,0,0,0,.73.277,1.388,1.388,0,0,0,1.275-.832,4.664,4.664,0,0,0,.628-2.328,1.437,1.437,0,0,0-.351-1.044,1.281,1.281,0,0,0-.961-0.36,4.313,4.313,0,0,0-2.439,1.257,29.99,29.99,0,0,0-5.877,7.724l2.661-8.981-6.375,1.035ZM233.435,0.6V1.3a8.169,8.169,0,0,1,1.183-.129,2.01,2.01,0,0,1,1.256.333,0.875,0.875,0,0,1,.3.721,17.17,17.17,0,0,1-.647,2.624L229.906,24.2a9.915,9.915,0,0,0,5.728,2.088,9.362,9.362,0,0,0,5.064-1.645,13.079,13.079,0,0,0,4.268-4.592,11.748,11.748,0,0,0,1.7-5.923,5.068,5.068,0,0,0-1.293-3.659,4.406,4.406,0,0,0-3.326-1.349,5.938,5.938,0,0,0-2.763.684,12.84,12.84,0,0,0-3.095,2.532l3.64-12.769Zm1.645,15.486a7.538,7.538,0,0,1,2.347-3.835,5.215,5.215,0,0,1,3.363-1.377,2.565,2.565,0,0,1,1.987.961,3.909,3.909,0,0,1,.84,2.661,13.694,13.694,0,0,1-1.284,5.71,9.428,9.428,0,0,1-3.031,4.019,6.007,6.007,0,0,1-3.372,1.192,6.956,6.956,0,0,1-3.253-1.016ZM252.765,0.621V1.3a9.728,9.728,0,0,1,1.293-.129,1.714,1.714,0,0,1,1.091.286,0.9,0.9,0,0,1,.351.73,17.888,17.888,0,0,1-.61,2.439l-5.008,17.334a12.907,12.907,0,0,0-.591,2.735,1.537,1.537,0,0,0,.471,1.109,1.576,1.576,0,0,0,1.173.481,3.855,3.855,0,0,0,2.07-.7,13.526,13.526,0,0,0,3.234-3.456l-0.555-.573a10.061,10.061,0,0,1-2.014,2.347,1.271,1.271,0,0,1-.757.314,0.575,0.575,0,0,1-.435-0.185,0.644,0.644,0,0,1-.175-0.462,11.582,11.582,0,0,1,.462-2.014l6.32-21.991ZM268.676,17.7a11.225,11.225,0,0,0,4.73-2.957,4.438,4.438,0,0,0,1.22-2.938,2.4,2.4,0,0,0-.942-1.885,4.438,4.438,0,0,0-2.9-.795,9.881,9.881,0,0,0-5.285,1.6,12.835,12.835,0,0,0-4.269,4.481,11.071,11.071,0,0,0-1.7,5.636,5.846,5.846,0,0,0,1.368,3.751,4.9,4.9,0,0,0,4.065,1.7q3.974,0,8.353-4.343l-0.388-.536a20.7,20.7,0,0,1-3.65,2.412,6.242,6.242,0,0,1-2.559.545,3.867,3.867,0,0,1-2.828-1.155,3.8,3.8,0,0,1-1.164-2.8,11.336,11.336,0,0,1,.13-1.534,26.3,26.3,0,0,0,5.821-1.183h0ZM266.1,12.05a6.055,6.055,0,0,1,4-2,1.912,1.912,0,0,1,1.4.48,1.684,1.684,0,0,1,.489,1.257,4.374,4.374,0,0,1-1.136,2.689,8.976,8.976,0,0,1-3.41,2.43,15.6,15.6,0,0,1-4.453,1.072A12.054,12.054,0,0,1,266.1,12.05Z"/>
</svg>
